<mxfile host="app.diagrams.net" agent="Mozilla/5.0 (Macintosh; Intel Mac OS X 10_15_7) AppleWebKit/537.36 (KHTML, like Gecko) Chrome/129.0.0.0 Safari/537.36" version="24.7.17">
  <diagram name="Page-1" id="BYTXbC25DRY8ZI2Z7DPX">
    <mxGraphModel dx="1853" dy="571" grid="1" gridSize="10" guides="1" tooltips="1" connect="1" arrows="1" fold="1" page="1" pageScale="1" pageWidth="827" pageHeight="1169" math="0" shadow="0">
      <root>
        <mxCell id="0" />
        <mxCell id="1" parent="0" />
        <mxCell id="M__pvSeYkyBA2umGWvLx-5" value="&lt;div&gt;Customer&lt;/div&gt;&lt;div&gt;POST&lt;/div&gt;" style="rounded=1;whiteSpace=wrap;html=1;" parent="1" vertex="1">
          <mxGeometry x="100" y="300" width="120" height="60" as="geometry" />
        </mxCell>
        <mxCell id="M__pvSeYkyBA2umGWvLx-6" value="" style="rounded=1;whiteSpace=wrap;html=1;" parent="1" vertex="1">
          <mxGeometry x="324" y="290" width="180" height="60" as="geometry" />
        </mxCell>
        <mxCell id="M__pvSeYkyBA2umGWvLx-7" value="iomp-customer-service" style="text;html=1;align=center;verticalAlign=middle;whiteSpace=wrap;rounded=0;" parent="1" vertex="1">
          <mxGeometry x="350" y="307.5" width="130" height="22.5" as="geometry" />
        </mxCell>
        <mxCell id="M__pvSeYkyBA2umGWvLx-13" value="" style="shape=flexArrow;endArrow=classic;startArrow=classic;html=1;rounded=0;" parent="1" edge="1">
          <mxGeometry width="100" height="100" relative="1" as="geometry">
            <mxPoint x="220" y="320" as="sourcePoint" />
            <mxPoint x="320" y="320" as="targetPoint" />
          </mxGeometry>
        </mxCell>
        <mxCell id="M__pvSeYkyBA2umGWvLx-14" value="" style="shape=flexArrow;endArrow=classic;startArrow=classic;html=1;rounded=0;" parent="1" edge="1">
          <mxGeometry width="100" height="100" relative="1" as="geometry">
            <mxPoint x="504" y="319.5" as="sourcePoint" />
            <mxPoint x="600" y="320" as="targetPoint" />
          </mxGeometry>
        </mxCell>
        <mxCell id="M__pvSeYkyBA2umGWvLx-25" value="DB" style="shape=cylinder3;whiteSpace=wrap;html=1;boundedLbl=1;backgroundOutline=1;size=15;" parent="1" vertex="1">
          <mxGeometry x="430" y="420" width="60" height="60" as="geometry" />
        </mxCell>
        <mxCell id="eWnXWsVsrv5pQYVKBkyM-1" value="&lt;pre style=&quot;margin-top: 0px;&quot;&gt;&lt;pre&gt;&lt;pre&gt;&lt;pre&gt;&lt;span dir=&quot;ltr&quot; class=&quot;ui-provider a b c d e f g h i j k l m n o p q r s t u v w x y z ab ac ae af ag ah ai aj ak&quot;&gt;&lt;p&gt;&lt;font style=&quot;font-size: 9px;&quot;&gt;&lt;br&gt;&lt;/font&gt;&lt;/p&gt;&lt;p&gt;&lt;font style=&quot;&quot;&gt;&lt;span style=&quot;font-size: 10px;&quot;&gt;     &lt;/span&gt;&lt;font style=&quot;font-size: 11px;&quot;&gt; &lt;b&gt;DELETE&lt;/b&gt;&lt;font style=&quot;&quot; color=&quot;#0f0f0f&quot;&gt; &lt;/font&gt;&lt;font style=&quot;&quot; face=&quot;Verdana&quot;&gt;&lt;span style=&quot;background-color: rgb(255, 255, 255); white-space: normal;&quot;&gt;&lt;font color=&quot;#0f0f0f&quot;&gt;/{projectId}&lt;/font&gt;&lt;/span&gt;&lt;span style=&quot;background-color: initial; white-space: normal;&quot;&gt;&lt;font style=&quot;&quot; color=&quot;#0f0f0f&quot;&gt;/&lt;/font&gt;remove-user/{userId}&lt;/span&gt;&lt;/font&gt;&lt;/font&gt;&lt;/font&gt;&lt;/p&gt;&lt;p&gt;&lt;/p&gt;&lt;/span&gt;&lt;/pre&gt;&lt;/pre&gt;&lt;/pre&gt;&lt;/pre&gt;" style="text;html=1;whiteSpace=wrap;overflow=hidden;rounded=0;align=left;" parent="1" vertex="1">
          <mxGeometry x="80" y="210" width="360" height="70" as="geometry" />
        </mxCell>
        <mxCell id="0USdb_t3DaOtPhE5vXOL-1" value="&lt;span style=&quot;color: rgb(0, 0, 0); font-family: Helvetica; font-size: 12px; font-style: normal; font-variant-ligatures: normal; font-variant-caps: normal; font-weight: 400; letter-spacing: normal; orphans: 2; text-align: center; text-indent: 0px; text-transform: none; widows: 2; word-spacing: 0px; -webkit-text-stroke-width: 0px; white-space: normal; background-color: rgb(251, 251, 251); text-decoration-thickness: initial; text-decoration-style: initial; text-decoration-color: initial; display: inline !important; float: none;&quot;&gt;iomp-user-service&lt;/span&gt;" style="rounded=1;whiteSpace=wrap;html=1;" parent="1" vertex="1">
          <mxGeometry x="600" y="280" width="180" height="60" as="geometry" />
        </mxCell>
        <mxCell id="0USdb_t3DaOtPhE5vXOL-2" value="DB" style="shape=cylinder3;whiteSpace=wrap;html=1;boundedLbl=1;backgroundOutline=1;size=15;" parent="1" vertex="1">
          <mxGeometry x="660" y="410" width="60" height="60" as="geometry" />
        </mxCell>
        <mxCell id="0USdb_t3DaOtPhE5vXOL-3" value="" style="shape=flexArrow;endArrow=classic;startArrow=classic;html=1;rounded=0;entryX=0.75;entryY=1;entryDx=0;entryDy=0;exitX=0.5;exitY=0;exitDx=0;exitDy=0;exitPerimeter=0;" parent="1" source="M__pvSeYkyBA2umGWvLx-25" target="M__pvSeYkyBA2umGWvLx-6" edge="1">
          <mxGeometry width="100" height="100" relative="1" as="geometry">
            <mxPoint x="450" y="390" as="sourcePoint" />
            <mxPoint x="550" y="290" as="targetPoint" />
          </mxGeometry>
        </mxCell>
        <mxCell id="0USdb_t3DaOtPhE5vXOL-5" value="" style="shape=flexArrow;endArrow=classic;startArrow=classic;html=1;rounded=0;exitX=0.5;exitY=0;exitDx=0;exitDy=0;exitPerimeter=0;entryX=0.5;entryY=1;entryDx=0;entryDy=0;" parent="1" source="0USdb_t3DaOtPhE5vXOL-2" target="0USdb_t3DaOtPhE5vXOL-1" edge="1">
          <mxGeometry width="100" height="100" relative="1" as="geometry">
            <mxPoint x="470" y="430" as="sourcePoint" />
            <mxPoint x="550" y="370" as="targetPoint" />
          </mxGeometry>
        </mxCell>
        <mxCell id="0USdb_t3DaOtPhE5vXOL-6" value="&lt;pre style=&quot;margin-top: 0px;&quot;&gt;&lt;pre&gt;&lt;pre&gt;&lt;pre&gt;&lt;span dir=&quot;ltr&quot; class=&quot;ui-provider a b c d e f g h i j k l m n o p q r s t u v w x y z ab ac ae af ag ah ai aj ak&quot;&gt;&lt;pre&gt;&lt;span dir=&quot;ltr&quot; class=&quot;ui-provider a b c d e f g h i j k l m n o p q r s t u v w x y z ab ac ae af ag ah ai aj ak&quot;&gt;&lt;p&gt;&lt;span style=&quot;font-size: 10px;&quot;&gt;&lt;br class=&quot;Apple-interchange-newline&quot;&gt;&lt;/span&gt;&lt;font style=&quot;font-size: 11px;&quot;&gt; &lt;b&gt;PUT&lt;/b&gt;&lt;font color=&quot;#0f0f0f&quot;&gt; &lt;/font&gt;&lt;font face=&quot;Verdana&quot;&gt;&lt;span style=&quot;background-color: rgb(255, 255, 255); white-space: normal;&quot;&gt;&lt;font color=&quot;#0f0f0f&quot;&gt;/users&lt;/font&gt;&lt;/span&gt;&lt;span style=&quot;background-color: initial; white-space: normal;&quot;&gt;/{userId}&lt;/span&gt;&lt;/font&gt;&lt;/font&gt;&lt;/p&gt;&lt;/span&gt;&lt;/pre&gt;&lt;pre&gt;{&lt;br&gt;   &quot;phone&quot;:&quot;+17884809368&quot;&lt;br&gt;}&lt;br&gt;&lt;/pre&gt;&lt;/span&gt;&lt;/pre&gt;&lt;/pre&gt;&lt;/pre&gt;&lt;/pre&gt;" style="text;html=1;whiteSpace=wrap;overflow=hidden;rounded=0;align=left;" parent="1" vertex="1">
          <mxGeometry x="520" y="180" width="390" height="180" as="geometry" />
        </mxCell>
        <mxCell id="0USdb_t3DaOtPhE5vXOL-8" value="IAM" style="rounded=1;whiteSpace=wrap;html=1;" parent="1" vertex="1">
          <mxGeometry x="870" y="280" width="120" height="60" as="geometry" />
        </mxCell>
        <mxCell id="0USdb_t3DaOtPhE5vXOL-10" value="" style="shape=flexArrow;endArrow=classic;startArrow=classic;html=1;rounded=0;entryX=0;entryY=0.5;entryDx=0;entryDy=0;exitX=1;exitY=0.5;exitDx=0;exitDy=0;" parent="1" source="0USdb_t3DaOtPhE5vXOL-1" target="0USdb_t3DaOtPhE5vXOL-8" edge="1">
          <mxGeometry width="100" height="100" relative="1" as="geometry">
            <mxPoint x="780" y="320" as="sourcePoint" />
            <mxPoint x="880" y="220" as="targetPoint" />
          </mxGeometry>
        </mxCell>
        <mxCell id="0USdb_t3DaOtPhE5vXOL-11" value="user_profile" style="swimlane;fontStyle=0;childLayout=stackLayout;horizontal=1;startSize=26;fillColor=none;horizontalStack=0;resizeParent=1;resizeParentMax=0;resizeLast=0;collapsible=1;marginBottom=0;whiteSpace=wrap;html=1;" parent="1" vertex="1">
          <mxGeometry x="885" y="379" width="140" height="232" as="geometry" />
        </mxCell>
        <mxCell id="0USdb_t3DaOtPhE5vXOL-12" value="user_id" style="text;strokeColor=none;fillColor=none;align=left;verticalAlign=top;spacingLeft=4;spacingRight=4;overflow=hidden;rotatable=0;points=[[0,0.5],[1,0.5]];portConstraint=eastwest;whiteSpace=wrap;html=1;" parent="0USdb_t3DaOtPhE5vXOL-11" vertex="1">
          <mxGeometry y="26" width="140" height="26" as="geometry" />
        </mxCell>
        <mxCell id="0USdb_t3DaOtPhE5vXOL-13" value="first_name" style="text;strokeColor=none;fillColor=none;align=left;verticalAlign=top;spacingLeft=4;spacingRight=4;overflow=hidden;rotatable=0;points=[[0,0.5],[1,0.5]];portConstraint=eastwest;whiteSpace=wrap;html=1;" parent="0USdb_t3DaOtPhE5vXOL-11" vertex="1">
          <mxGeometry y="52" width="140" height="26" as="geometry" />
        </mxCell>
        <mxCell id="0USdb_t3DaOtPhE5vXOL-14" value="last_name" style="text;strokeColor=none;fillColor=none;align=left;verticalAlign=top;spacingLeft=4;spacingRight=4;overflow=hidden;rotatable=0;points=[[0,0.5],[1,0.5]];portConstraint=eastwest;whiteSpace=wrap;html=1;" parent="0USdb_t3DaOtPhE5vXOL-11" vertex="1">
          <mxGeometry y="78" width="140" height="26" as="geometry" />
        </mxCell>
        <mxCell id="0USdb_t3DaOtPhE5vXOL-16" value="&lt;div&gt;phone&lt;/div&gt;" style="text;strokeColor=none;fillColor=none;align=left;verticalAlign=top;spacingLeft=4;spacingRight=4;overflow=hidden;rotatable=0;points=[[0,0.5],[1,0.5]];portConstraint=eastwest;whiteSpace=wrap;html=1;" parent="0USdb_t3DaOtPhE5vXOL-11" vertex="1">
          <mxGeometry y="104" width="140" height="20" as="geometry" />
        </mxCell>
        <mxCell id="0USdb_t3DaOtPhE5vXOL-15" value="customer_id" style="text;strokeColor=none;fillColor=none;align=left;verticalAlign=top;spacingLeft=4;spacingRight=4;overflow=hidden;rotatable=0;points=[[0,0.5],[1,0.5]];portConstraint=eastwest;whiteSpace=wrap;html=1;" parent="0USdb_t3DaOtPhE5vXOL-11" vertex="1">
          <mxGeometry y="124" width="140" height="26" as="geometry" />
        </mxCell>
        <mxCell id="0USdb_t3DaOtPhE5vXOL-18" value="customer_name" style="text;strokeColor=none;fillColor=none;align=left;verticalAlign=top;spacingLeft=4;spacingRight=4;overflow=hidden;rotatable=0;points=[[0,0.5],[1,0.5]];portConstraint=eastwest;whiteSpace=wrap;html=1;" parent="0USdb_t3DaOtPhE5vXOL-11" vertex="1">
          <mxGeometry y="150" width="140" height="26" as="geometry" />
        </mxCell>
        <mxCell id="0USdb_t3DaOtPhE5vXOL-17" value="&lt;div&gt;created_date&lt;/div&gt;" style="text;strokeColor=none;fillColor=none;align=left;verticalAlign=top;spacingLeft=4;spacingRight=4;overflow=hidden;rotatable=0;points=[[0,0.5],[1,0.5]];portConstraint=eastwest;whiteSpace=wrap;html=1;" parent="0USdb_t3DaOtPhE5vXOL-11" vertex="1">
          <mxGeometry y="176" width="140" height="30" as="geometry" />
        </mxCell>
        <mxCell id="m3tlAL_hqEG2WaRdSzin-2" value="updated_date" style="text;strokeColor=none;fillColor=none;align=left;verticalAlign=top;spacingLeft=4;spacingRight=4;overflow=hidden;rotatable=0;points=[[0,0.5],[1,0.5]];portConstraint=eastwest;whiteSpace=wrap;html=1;" vertex="1" parent="0USdb_t3DaOtPhE5vXOL-11">
          <mxGeometry y="206" width="140" height="26" as="geometry" />
        </mxCell>
        <mxCell id="0USdb_t3DaOtPhE5vXOL-19" value="project_user_mapping" style="swimlane;fontStyle=0;childLayout=stackLayout;horizontal=1;startSize=26;fillColor=none;horizontalStack=0;resizeParent=1;resizeParentMax=0;resizeLast=0;collapsible=1;marginBottom=0;whiteSpace=wrap;html=1;" parent="1" vertex="1">
          <mxGeometry x="274" y="410" width="140" height="232" as="geometry" />
        </mxCell>
        <mxCell id="0USdb_t3DaOtPhE5vXOL-20" value="id" style="text;strokeColor=none;fillColor=none;align=left;verticalAlign=top;spacingLeft=4;spacingRight=4;overflow=hidden;rotatable=0;points=[[0,0.5],[1,0.5]];portConstraint=eastwest;whiteSpace=wrap;html=1;" parent="0USdb_t3DaOtPhE5vXOL-19" vertex="1">
          <mxGeometry y="26" width="140" height="26" as="geometry" />
        </mxCell>
        <mxCell id="0USdb_t3DaOtPhE5vXOL-27" value="user_id" style="text;strokeColor=none;fillColor=none;align=left;verticalAlign=top;spacingLeft=4;spacingRight=4;overflow=hidden;rotatable=0;points=[[0,0.5],[1,0.5]];portConstraint=eastwest;whiteSpace=wrap;html=1;" parent="0USdb_t3DaOtPhE5vXOL-19" vertex="1">
          <mxGeometry y="52" width="140" height="26" as="geometry" />
        </mxCell>
        <mxCell id="0USdb_t3DaOtPhE5vXOL-21" value="project_id" style="text;strokeColor=none;fillColor=none;align=left;verticalAlign=top;spacingLeft=4;spacingRight=4;overflow=hidden;rotatable=0;points=[[0,0.5],[1,0.5]];portConstraint=eastwest;whiteSpace=wrap;html=1;" parent="0USdb_t3DaOtPhE5vXOL-19" vertex="1">
          <mxGeometry y="78" width="140" height="26" as="geometry" />
        </mxCell>
        <mxCell id="0USdb_t3DaOtPhE5vXOL-22" value="customer_id" style="text;strokeColor=none;fillColor=none;align=left;verticalAlign=top;spacingLeft=4;spacingRight=4;overflow=hidden;rotatable=0;points=[[0,0.5],[1,0.5]];portConstraint=eastwest;whiteSpace=wrap;html=1;" parent="0USdb_t3DaOtPhE5vXOL-19" vertex="1">
          <mxGeometry y="104" width="140" height="26" as="geometry" />
        </mxCell>
        <mxCell id="0USdb_t3DaOtPhE5vXOL-23" value="&lt;div&gt;is_primary&lt;/div&gt;" style="text;strokeColor=none;fillColor=none;align=left;verticalAlign=top;spacingLeft=4;spacingRight=4;overflow=hidden;rotatable=0;points=[[0,0.5],[1,0.5]];portConstraint=eastwest;whiteSpace=wrap;html=1;" parent="0USdb_t3DaOtPhE5vXOL-19" vertex="1">
          <mxGeometry y="130" width="140" height="20" as="geometry" />
        </mxCell>
        <mxCell id="0USdb_t3DaOtPhE5vXOL-24" value="is_active" style="text;strokeColor=none;fillColor=none;align=left;verticalAlign=top;spacingLeft=4;spacingRight=4;overflow=hidden;rotatable=0;points=[[0,0.5],[1,0.5]];portConstraint=eastwest;whiteSpace=wrap;html=1;" parent="0USdb_t3DaOtPhE5vXOL-19" vertex="1">
          <mxGeometry y="150" width="140" height="26" as="geometry" />
        </mxCell>
        <mxCell id="0USdb_t3DaOtPhE5vXOL-25" value="created_date" style="text;strokeColor=none;fillColor=none;align=left;verticalAlign=top;spacingLeft=4;spacingRight=4;overflow=hidden;rotatable=0;points=[[0,0.5],[1,0.5]];portConstraint=eastwest;whiteSpace=wrap;html=1;" parent="0USdb_t3DaOtPhE5vXOL-19" vertex="1">
          <mxGeometry y="176" width="140" height="26" as="geometry" />
        </mxCell>
        <mxCell id="0USdb_t3DaOtPhE5vXOL-26" value="&lt;div&gt;updated_date&lt;/div&gt;" style="text;strokeColor=none;fillColor=none;align=left;verticalAlign=top;spacingLeft=4;spacingRight=4;overflow=hidden;rotatable=0;points=[[0,0.5],[1,0.5]];portConstraint=eastwest;whiteSpace=wrap;html=1;" parent="0USdb_t3DaOtPhE5vXOL-19" vertex="1">
          <mxGeometry y="202" width="140" height="30" as="geometry" />
        </mxCell>
        <mxCell id="m3tlAL_hqEG2WaRdSzin-3" value="&lt;blockquote style=&quot;text-align: left;&quot;&gt;{&lt;br&gt;   &quot;data&quot;:&lt;span style=&quot;font-family: Helvetica; text-align: center; white-space-collapse: collapse;&quot;&gt;“User &amp;lt;User name&amp;gt; is removed successfully for the Project &amp;lt;Project Name&amp;gt;.&lt;br&gt;&lt;/span&gt;   &quot;totalRecords&quot;:1,&lt;br&gt;   &quot;key&quot;:&quot;7ef66691-436b-4615-bda8-a9081bbfc71a&quot;,&lt;br&gt;   &quot;timestamp&quot;:1718281647028&lt;br&gt;}&lt;/blockquote&gt;" style="text;html=1;align=center;verticalAlign=middle;resizable=0;points=[];autosize=1;strokeColor=none;fillColor=none;" vertex="1" parent="1">
          <mxGeometry x="-46" y="350" width="550" height="120" as="geometry" />
        </mxCell>
        <mxCell id="m3tlAL_hqEG2WaRdSzin-4" value="&lt;blockquote style=&quot;text-align: left;&quot;&gt;{&lt;br&gt;&amp;nbsp; &amp;nbsp;&quot;data&quot;:&lt;span style=&quot;font-family: Helvetica; text-align: center; white-space-collapse: collapse;&quot;&gt;“&lt;/span&gt;&lt;span style=&quot;background-color: initial;&quot;&gt;Details for &amp;lt;User name&amp;gt;  is successfully updated.“&lt;/span&gt;&lt;br&gt;&amp;nbsp; &amp;nbsp;&quot;totalRecords&quot;:1,&lt;br&gt;&amp;nbsp; &amp;nbsp;&quot;key&quot;:&quot;7ef66691-436b-4615-bda8-a9081bbfc71a&quot;,&lt;br&gt;&amp;nbsp; &amp;nbsp;&quot;timestamp&quot;:1718281647028&lt;br&gt;}&lt;/blockquote&gt;" style="text;html=1;align=center;verticalAlign=middle;resizable=0;points=[];autosize=1;strokeColor=none;fillColor=none;" vertex="1" parent="1">
          <mxGeometry x="505" y="450" width="420" height="120" as="geometry" />
        </mxCell>
      </root>
    </mxGraphModel>
  </diagram>
</mxfile>
